<svg width="200" height="60" viewBox="0 0 200 60" fill="none" xmlns="http://www.w3.org/2000/svg">
  <rect width="200" height="60" rx="8" fill="#1E293B"/>
  <path d="M37.7 41H32.125L31.225 38.075H22.525L21.625 41H16.05L24.175 18.8H29.575L37.7 41ZM29.875 33.85L26.875 24.875L23.875 33.85H29.875ZM56.7408 41H40.5408V18.8H56.7408V22.975H45.7408V27.475H55.8408V31.65H45.7408V36.825H56.7408V41ZM78.8566 41H72.4816L67.7316 33.4H65.1816V41H59.9816V18.8H68.8566C70.4899 18.8 71.8899 19.05 73.0566 19.55C74.2232 20.05 75.1066 20.75 75.7066 21.65C76.3066 22.55 76.6066 23.6 76.6066 24.8C76.6066 26.1 76.2399 27.25 75.5066 28.25C74.7732 29.25 73.6566 29.975 72.1566 30.425L78.8566 41ZM68.5566 23.05H65.1816V29.2H68.5566C69.7232 29.2 70.5899 28.95 71.1566 28.45C71.7232 27.95 72.0066 27.25 72.0066 26.35C72.0066 25.45 71.7232 24.725 71.1566 24.175C70.5899 23.625 69.7232 23.35 68.5566 23.05ZM97.5424 18.8C99.9424 18.8 102.026 19.35 103.792 20.45C105.559 21.55 106.909 23.05 107.842 24.95C108.776 26.85 109.242 29 109.242 31.4C109.242 33.8 108.776 35.95 107.842 37.85C106.909 39.75 105.559 41.25 103.792 42.35C102.026 43.45 99.9424 44 97.5424 44C95.1424 44 93.0591 43.45 91.2924 42.35C89.5257 41.25 88.1757 39.75 87.2424 37.85C86.3091 35.95 85.8424 33.8 85.8424 31.4C85.8424 29 86.3091 26.85 87.2424 24.95C88.1757 23.05 89.5257 21.55 91.2924 20.45C93.0591 19.35 95.1424 18.8 97.5424 18.8ZM97.5424 39.8C99.2424 39.8 100.626 39.225 101.692 38.075C102.759 36.925 103.292 34.9667 103.292 31.4C103.292 27.8333 102.759 25.875 101.692 24.725C100.626 23.575 99.2424 23 97.5424 23C95.8424 23 94.4591 23.575 93.3924 24.725C92.3257 25.875 91.7924 27.8333 91.7924 31.4C91.7924 34.9667 92.3257 36.925 93.3924 38.075C94.4591 39.225 95.8424 39.8 97.5424 39.8ZM129.708 41H112.933V18.8H118.133V36.825H129.708V41ZM149.924 41H133.724V18.8H149.924V22.975H138.924V27.475H149.024V31.65H138.924V36.825H149.924V41ZM171.04 41H154.84V18.8H171.04V22.975H160.04V27.475H170.14V31.65H160.04V36.825H171.04V41ZM192.356 41H185.981L181.231 33.4H178.681V41H173.481V18.8H182.356C183.989 18.8 185.389 19.05 186.556 19.55C187.723 20.05 188.606 20.75 189.206 21.65C189.806 22.55 190.106 23.6 190.106 24.8C190.106 26.1 189.739 27.25 189.006 28.25C188.273 29.25 187.156 29.975 185.656 30.425L192.356 41ZM182.056 23.05H178.681V29.2H182.056C183.223 29.2 184.089 28.95 184.656 28.45C185.223 27.95 185.506 27.25 185.506 26.35C185.506 25.45 185.223 24.725 184.656 24.175C184.089 23.625 183.223 23.35 182.056 23.05Z" fill="url(#paint0_linear_1_2)"/>
  <defs>
    <linearGradient id="paint0_linear_1_2" x1="16" y1="31.4" x2="193" y2="31.4" gradientUnits="userSpaceOnUse">
      <stop stop-color="#3B82F6"/>
      <stop offset="1" stop-color="#06B6D4"/>
    </linearGradient>
  </defs>
</svg>