<svg width="32" height="32" viewBox="0 0 32 32" fill="none" xmlns="http://www.w3.org/2000/svg">
  <rect width="32" height="32" rx="6" fill="#1E293B"/>
  <path d="M11.8 22H9.54L9.12 20.5H5.68L5.26 22H3L6.56 11H8.24L11.8 22ZM8.62 18.86L7.4 15.2L6.18 18.86H8.62ZM19.3944 22H13.1944V11H19.3944V12.6H14.9944V15.7H18.9944V17.3H14.9944V20.4H19.3944V22ZM27.5688 22H24.8288L22.6888 18.6H21.4688V22H19.6688V11H23.8488C24.5688 11 25.1888 11.12 25.7088 11.36C26.2288 11.6 26.6288 11.96 26.9088 12.44C27.1888 12.92 27.3288 13.48 27.3288 14.12C27.3288 14.84 27.1288 15.46 26.7288 15.98C26.3288 16.5 25.7288 16.86 24.9288 17.06L27.5688 22ZM23.6888 12.66H21.4688V16.94H23.6888C24.3288 16.94 24.8088 16.78 25.1288 16.46C25.4488 16.14 25.6088 15.7 25.6088 15.14C25.6088 14.58 25.4488 14.14 25.1288 13.82C24.8088 13.5 24.3288 12.66 23.6888 12.66Z" fill="url(#paint0_linear_1_2)"/>
  <defs>
    <linearGradient id="paint0_linear_1_2" x1="3" y1="16.5" x2="28" y2="16.5" gradientUnits="userSpaceOnUse">
      <stop stop-color="#3B82F6"/>
      <stop offset="1" stop-color="#06B6D4"/>
    </linearGradient>
  </defs>
</svg> 